<?xml version="1.0" standalone="no"?>
<!DOCTYPE svg PUBLIC "-//W3C//DTD SVG 20010904//EN"
 "http://www.w3.org/TR/2001/REC-SVG-20010904/DTD/svg10.dtd">
<svg version="1.0" xmlns="http://www.w3.org/2000/svg"
 width="1024.000000pt" height="1024.000000pt" viewBox="0 0 1024.000000 1024.000000"
 preserveAspectRatio="xMidYMid meet">

<g transform="translate(0.000000,1024.000000) scale(0.100000,-0.100000)"
fill="#000000" stroke="none">
<path d="M0 5120 l0 -5120 5120 0 5120 0 0 5120 0 5120 -5120 0 -5120 0 0
-5120z m5238 4285 c72 -17 169 -64 223 -107 21 -17 42 -27 48 -24 5 4 34 11
65 17 111 20 282 -33 374 -115 l41 -37 65 9 c162 21 314 -30 441 -148 44 -42
57 -48 108 -54 135 -15 308 -124 377 -238 17 -29 27 -34 87 -45 200 -37 380
-198 450 -402 12 -36 23 -80 23 -98 0 -25 9 -39 45 -68 59 -49 101 -115 127
-199 17 -56 20 -85 15 -160 l-5 -92 104 -95 c682 -617 1099 -1528 1131 -2464
7 -204 -6 -376 -43 -595 -61 -362 -219 -812 -373 -1059 l-51 -83 0 -161 0
-162 35 -58 c66 -109 102 -254 92 -371 -12 -133 -60 -255 -134 -337 -41 -45
-50 -26 84 -180 l92 -106 5 -127 c3 -70 3 -133 0 -141 -16 -41 -337 -205 -629
-323 -648 -259 -1343 -425 -2105 -501 -431 -43 -1069 -52 -1450 -21 -430 35
-845 90 -1110 146 -690 146 -1423 411 -1765 639 -158 105 -279 266 -305 404
-16 85 -13 339 5 397 35 115 158 214 266 214 l49 0 0 69 c0 64 3 73 35 115
l35 46 0 227 0 226 -44 76 c-192 334 -325 724 -387 1131 -27 185 -37 547 -20
752 38 448 196 960 422 1371 171 309 427 636 691 878 l96 89 -5 99 c-5 83 -3
107 16 164 26 76 66 137 124 188 35 31 43 46 54 100 35 172 165 344 317 420
48 23 108 44 148 51 61 10 70 14 94 49 82 119 246 223 374 235 62 7 68 10 127
65 65 60 157 111 233 128 51 12 206 13 233 2 13 -5 30 4 60 33 52 49 143 92
238 112 60 12 89 13 152 5 l78 -11 52 36 c62 43 101 61 187 85 81 22 222 24
308 4z"/>
<path d="M5005 9304 c-115 -24 -181 -55 -249 -113 l-46 -40 -41 14 c-141 50
-296 9 -421 -112 l-46 -45 -46 17 c-35 13 -65 16 -130 13 -109 -6 -188 -43
-280 -132 -65 -63 -66 -63 -136 -69 -126 -11 -248 -84 -335 -202 -41 -56 -52
-65 -79 -65 -98 -1 -225 -60 -313 -146 -75 -73 -137 -193 -153 -294 -6 -42
-16 -70 -27 -78 -10 -7 -35 -29 -56 -49 -112 -108 -131 -306 -39 -415 21 -25
25 -39 23 -77 -1 -26 5 -78 14 -116 54 -236 275 -417 522 -430 67 -3 76 -6
120 -43 117 -96 359 -284 608 -471 290 -218 317 -241 298 -248 -10 -4 -123
-71 -189 -113 -19 -11 -30 -11 -80 5 -70 22 -128 13 -234 -36 -67 -30 -68 -31
-101 -14 -42 22 -228 85 -252 85 -10 0 -35 9 -57 20 -22 11 -48 20 -58 20 -11
0 -37 12 -58 26 -33 23 -45 25 -89 20 l-50 -6 -30 58 c-46 88 -78 119 -143
137 -34 10 -75 32 -102 54 -82 69 -107 75 -145 36 -27 -26 -33 -73 -15 -119 8
-21 6 -26 -11 -31 -41 -13 -51 -56 -40 -177 8 -96 12 -114 33 -133 19 -19 201
-98 275 -119 14 -5 23 -16 25 -33 2 -18 14 -34 37 -47 38 -22 342 -148 544
-226 225 -87 267 -92 506 -64 138 17 184 14 293 -16 35 -10 36 -11 27 -43 -5
-17 -9 -55 -8 -82 2 -46 -2 -57 -48 -120 -59 -84 -88 -94 -87 -30 0 28 15 67
51 132 53 95 53 103 2 103 -15 0 -31 -23 -67 -97 -38 -79 -47 -108 -47 -151 0
-46 4 -57 28 -78 15 -13 37 -24 47 -24 28 0 76 45 112 105 l32 54 17 -26 c17
-26 17 -27 -11 -60 -17 -18 -33 -45 -36 -59 -6 -25 -1 -91 11 -130 6 -18 2
-22 -23 -27 -39 -8 -101 -63 -118 -104 -8 -18 -14 -52 -14 -75 0 -46 36 -160
63 -202 16 -23 15 -28 -27 -118 -56 -121 -138 -349 -166 -463 -34 -137 -14
-252 58 -329 40 -42 118 -76 177 -76 103 1 148 35 381 296 84 94 182 197 218
228 60 53 68 57 108 54 l43 -3 3 -177 2 -176 -27 -20 c-16 -11 -50 -31 -78
-45 -27 -13 -59 -34 -69 -46 -15 -17 -27 -20 -51 -15 -42 8 -106 -24 -125 -63
-11 -20 -15 -66 -15 -154 l-1 -126 -43 -84 c-78 -154 -78 -264 -2 -340 69 -69
167 -63 239 15 39 42 55 81 96 231 l13 50 46 -3 c36 -3 75 7 182 47 75 28 164
65 198 82 83 43 164 127 209 220 69 139 143 428 168 654 17 151 15 145 58 145
84 1 157 59 187 150 9 28 25 55 36 60 10 6 19 19 19 30 0 10 11 40 25 66 54
101 21 212 -83 278 -33 20 -42 32 -37 44 22 54 26 75 21 98 -9 34 -53 74 -81
74 -34 0 -49 26 -61 104 -9 56 -9 73 1 78 7 5 18 30 25 57 6 28 17 54 23 59
20 15 220 62 265 62 24 0 102 -7 175 -16 177 -22 265 -15 392 29 313 110 651
252 697 294 10 9 16 24 13 33 -4 13 2 19 22 23 48 10 181 76 218 108 34 30 35
33 36 107 0 43 2 96 2 119 1 34 -4 48 -27 72 -25 26 -28 35 -23 72 7 51 -13
96 -47 109 -36 13 -60 3 -99 -45 -24 -28 -53 -49 -84 -61 -67 -24 -88 -47
-120 -127 -15 -38 -32 -71 -39 -74 -7 -2 -29 0 -50 6 -34 9 -41 8 -62 -12 -13
-12 -45 -27 -70 -34 -75 -18 -341 -106 -422 -138 l-45 -18 -105 46 c-127 55
-173 64 -221 44 -35 -14 -35 -14 -115 39 -43 30 -94 59 -111 65 -18 6 -33 14
-33 17 0 4 78 66 173 137 225 170 614 473 701 547 63 52 74 58 116 58 60 0
150 24 230 61 188 88 306 256 318 453 5 82 8 94 37 132 89 116 61 292 -65 407
-55 51 -57 54 -69 126 -30 189 -185 358 -380 415 -30 9 -71 16 -91 16 -30 0
-38 5 -55 36 -30 55 -141 153 -212 187 -43 20 -86 31 -131 35 -67 5 -67 5
-138 72 -101 95 -180 133 -293 138 -64 3 -96 0 -125 -12 -21 -9 -40 -16 -42
-16 -2 0 -29 23 -60 51 -31 28 -87 65 -123 83 -60 28 -75 31 -161 31 -52 -1
-112 -5 -132 -9 -34 -8 -41 -5 -88 33 -66 52 -139 86 -214 100 -58 11 -151 13
-191 5z m210 -123 c33 -11 51 -22 53 -35 4 -16 0 -18 -25 -10 -15 5 -66 9
-113 8 -98 0 -176 -27 -263 -91 l-51 -38 55 -7 c89 -11 166 -44 192 -84 l24
-34 29 31 c48 51 100 73 174 73 37 0 76 -6 92 -15 25 -13 21 -14 -57 -10 -100
4 -168 -15 -210 -59 l-28 -29 -34 29 c-61 54 -91 65 -178 65 -90 0 -118 -11
-198 -78 l-48 -40 25 57 c104 236 329 343 561 267z m-592 -116 c31 -13 18 -22
-40 -29 -102 -11 -230 -86 -301 -176 l-33 -40 30 6 c17 4 52 3 78 -2 l48 -8
-66 -8 c-80 -9 -127 -28 -174 -69 -44 -39 -45 -24 -1 66 62 130 153 218 266
259 45 16 152 17 193 1z m1054 0 c28 -8 62 -24 75 -36 l23 -20 -35 18 c-26 13
-59 18 -127 18 -51 0 -93 3 -93 7 0 6 63 25 91 27 8 1 38 -6 66 -14z m-1569
-146 c12 -5 22 -13 22 -19 0 -9 -12 -12 -67 -14 -25 -1 -44 -22 -37 -40 3 -9
2 -16 -4 -16 -6 0 -12 5 -14 12 -3 8 -14 5 -35 -10 -17 -12 -37 -22 -44 -22
-7 0 -9 -3 -6 -7 9 -9 -13 -34 -24 -27 -15 9 -22 -25 -10 -40 8 -10 9 -16 1
-21 -5 -3 -10 1 -10 9 0 9 -4 16 -10 16 -14 0 -12 -12 7 -40 15 -21 15 -23 1
-17 -9 3 -29 2 -45 -2 -28 -8 -28 -8 12 -15 77 -14 83 -23 14 -23 -84 -1 -155
-24 -208 -69 -22 -20 -41 -33 -41 -30 0 12 56 134 78 171 33 54 107 130 162
165 83 53 181 68 258 39z m2080 5 c38 -11 24 -22 -35 -29 -32 -4 -70 -10 -85
-15 -20 -6 -28 -5 -32 6 -11 30 89 54 152 38z m-319 -108 c-2 -2 -38 -6 -79
-8 -42 -3 -64 -2 -50 2 25 8 137 13 129 6z m-2249 -80 c0 -15 -72 -151 -80
-151 -14 0 -39 -37 -40 -58 0 -14 -5 -17 -22 -12 -18 5 -20 4 -8 -4 16 -11 8
-15 -24 -11 -11 1 -16 -3 -11 -10 4 -6 1 -17 -5 -25 -10 -13 -8 -15 13 -15 14
0 28 -4 31 -9 4 -5 -11 -7 -33 -4 -96 13 -186 -36 -242 -131 -46 -77 -29 -13
26 99 76 155 191 273 307 315 50 18 88 25 88 16z m1490 -682 c0 -251 3 -454 8
-452 4 2 32 20 62 40 110 75 229 70 323 -12 l45 -40 47 12 47 13 -6 40 c-16
112 -33 725 -19 712 5 -6 11 -34 12 -60 1 -10 6 -15 11 -12 6 3 10 -4 11 -17
0 -13 2 -32 4 -43 2 -11 8 -123 14 -250 6 -126 14 -260 17 -296 l6 -67 54 -7
c48 -6 107 -36 94 -48 -3 -2 -33 0 -68 6 -39 7 -65 7 -71 1 -4 -5 -2 -128 5
-274 19 -361 22 -802 6 -808 -7 -2 -12 -15 -12 -30 0 -14 -2 -23 -4 -21 -10
10 -27 270 -36 534 -5 160 -12 354 -16 433 -7 138 -7 142 -29 142 -12 0 -36
-5 -53 -11 -30 -10 -35 -8 -83 35 -97 88 -192 87 -303 -3 -21 -17 -47 -31 -57
-31 -12 0 -19 -9 -21 -27 -4 -37 -27 -41 -34 -6 -4 22 -15 33 -41 42 -19 7
-49 25 -66 40 -45 40 -70 51 -113 51 -63 0 -112 -21 -152 -64 -36 -39 -40 -41
-77 -34 -22 4 -50 7 -61 7 -24 1 -21 56 -49 -686 -9 -210 -19 -392 -24 -404
-7 -21 -8 -20 -15 12 -17 84 -24 309 -16 496 5 109 13 289 16 400 l7 202 -74
3 -74 3 45 22 c25 13 59 23 77 23 l31 0 6 103 c3 56 8 181 11 277 7 221 15
321 26 314 5 -3 9 0 9 7 0 7 3 9 6 6 4 -4 1 -14 -7 -24 -8 -9 -9 -14 -3 -10
16 10 20 -15 19 -123 -1 -52 -3 -198 -4 -325 l-2 -229 40 -15 40 -15 49 46
c60 56 129 75 207 58 56 -13 77 -23 126 -61 20 -16 42 -29 48 -29 8 0 11 129
11 455 l0 455 25 0 25 0 0 -456z m-1630 416 c0 -5 -2 -10 -4 -10 -3 0 -8 5
-11 10 -3 6 -1 10 4 10 6 0 11 -4 11 -10z m-300 -17 c0 -15 -46 -73 -58 -73
-9 0 -11 -8 -8 -22 3 -13 3 -17 0 -11 -7 16 -24 1 -48 -42 -22 -42 -45 -69
-51 -63 -3 3 2 13 11 22 21 22 15 29 -10 11 -10 -8 -18 -26 -18 -40 0 -18 -4
-23 -12 -16 -8 7 -23 3 -47 -11 -19 -12 -29 -23 -21 -25 6 -3 10 -9 6 -14 -13
-22 48 -6 72 19 21 22 24 23 15 5 -14 -29 -14 -31 7 -36 9 -3 -2 -5 -24 -6
-50 -1 -115 -23 -156 -53 l-31 -22 7 45 c8 52 47 140 82 186 37 49 128 114
187 134 54 19 97 24 97 12z m840 -392 c6 -22 35 -149 65 -283 30 -134 57 -249
60 -257 3 -8 19 -78 36 -155 26 -128 106 -424 116 -436 11 -13 -51 504 -102
846 -42 276 -43 294 -15 287 26 -7 20 20 89 -418 26 -167 66 -464 91 -691 25
-215 37 -517 21 -494 -15 20 -66 185 -146 473 -69 248 -90 336 -179 737 -30
135 -64 283 -75 330 -26 105 -26 100 4 100 20 0 26 -7 35 -39z m2206 12 c-3
-10 -37 -148 -76 -308 -38 -159 -79 -324 -90 -365 -11 -41 -45 -174 -76 -295
-77 -303 -150 -555 -179 -617 l-24 -53 5 145 c6 158 51 582 88 835 13 88 27
191 31 228 9 87 61 407 68 414 3 2 14 3 24 1 18 -3 18 -11 -12 -233 -46 -336
-69 -519 -109 -878 -7 -59 4 -37 24 50 15 67 141 563 241 953 38 148 34 140
64 140 20 0 25 -4 21 -17z m304 4 c0 -15 -147 -435 -220 -627 -272 -716 -448
-1131 -450 -1059 0 47 49 197 127 389 193 471 318 797 408 1060 75 219 85 240
111 240 13 0 24 -1 24 -3z m-2831 -34 c5 -10 46 -126 91 -258 85 -247 148
-409 347 -884 166 -397 224 -569 180 -533 -34 29 -93 166 -364 842 -132 331
-307 826 -297 841 9 15 33 10 43 -8z m3173 -191 c-7 -2 -10 -8 -6 -13 6 -11
-54 -124 -201 -380 -58 -100 -105 -185 -105 -189 0 -4 18 -19 40 -34 38 -25
59 -64 46 -85 -4 -5 -25 10 -48 35 -22 24 -46 44 -52 44 -6 0 -92 -134 -190
-297 -180 -298 -275 -435 -381 -548 l-56 -60 27 54 c14 30 57 102 94 160 235
367 430 684 580 946 209 362 225 386 247 378 11 -4 13 -8 5 -11z m-3523 -14
c8 -12 50 -85 93 -163 44 -77 112 -196 151 -265 65 -114 195 -331 293 -488 21
-34 105 -163 185 -285 218 -333 215 -327 185 -327 -18 0 -258 279 -262 305 -2
15 -311 539 -350 593 -6 9 -48 -12 -80 -40 -32 -29 -34 -29 -34 -8 0 25 51 80
74 80 23 0 20 12 -18 77 -19 32 -81 144 -139 248 -57 105 -116 210 -130 234
-14 25 -24 48 -21 53 10 16 39 8 53 -14z m3756 -229 c0 -8 -6 -13 -12 -11 -7
1 -12 -2 -10 -7 3 -13 -66 -115 -212 -311 -72 -96 -131 -178 -131 -182 0 -5
10 -8 23 -8 27 0 62 -30 72 -60 3 -11 11 -20 16 -20 5 0 117 106 249 236 131
130 244 233 249 229 6 -3 11 -14 11 -23 0 -24 -409 -426 -525 -516 -55 -42
-156 -120 -225 -173 -69 -53 -177 -138 -240 -188 -97 -76 -289 -219 -373 -275
-31 -21 49 74 259 305 191 210 342 385 404 470 233 316 340 459 378 503 43 50
67 62 67 31z m-3879 -129 c103 -139 171 -235 232 -325 30 -44 71 -100 90 -125
108 -134 339 -408 442 -523 65 -72 117 -133 116 -135 -4 -4 -322 232 -481 358
-60 47 -180 140 -265 206 -164 126 -294 246 -443 407 -77 84 -88 100 -76 112
12 12 48 -20 247 -216 l233 -231 43 46 c23 25 50 46 59 46 24 0 22 6 -21 59
-47 56 -312 425 -312 434 0 13 36 12 50 -2 9 -9 48 -59 86 -111z m4152 1 c3
-8 -1 -12 -9 -9 -7 2 -15 10 -17 17 -3 8 1 12 9 9 7 -2 15 -10 17 -17z m-4548
-6 c-7 -9 -15 -13 -19 -10 -3 3 1 10 9 15 21 14 24 12 10 -5z m3595 -135 c10
-11 16 -20 13 -20 -3 0 -13 9 -23 20 -10 11 -16 20 -13 20 3 0 13 -9 23 -20z
m-1205 -80 c11 -11 20 -31 20 -44 0 -20 12 -31 62 -58 82 -43 171 -132 203
-199 13 -30 32 -88 41 -129 9 -41 22 -82 29 -90 22 -26 44 -104 51 -184 l7
-76 -48 0 c-41 0 -46 2 -40 18 35 90 31 143 -17 218 -17 27 -37 75 -44 107
-35 149 -113 243 -249 298 -35 14 -41 21 -45 55 l-5 39 -85 0 -85 0 -3 -36
c-3 -33 -7 -37 -58 -59 -68 -28 -152 -107 -187 -175 -13 -28 -35 -88 -48 -135
-12 -47 -28 -91 -36 -98 -31 -32 -37 -102 -17 -201 6 -32 5 -34 -18 -28 -15 4
-39 -1 -61 -12 -20 -10 -37 -15 -37 -11 0 32 65 257 80 279 10 14 24 55 30 90
23 127 123 268 237 333 33 19 53 37 57 54 14 54 37 64 146 64 87 0 103 -3 120
-20z m-125 -70 c3 -5 2 -10 -3 -10 -5 0 -12 -53 -16 -117 -10 -168 -26 -168
-26 0 0 129 1 137 19 137 11 0 23 -4 26 -10z m-89 -116 c-3 -9 -6 -46 -6 -84
l0 -69 -34 6 c-19 3 -36 1 -40 -6 -4 -6 -1 -11 6 -12 7 0 -14 -10 -47 -23 -33
-13 -68 -27 -77 -31 -40 -17 -4 84 52 149 50 56 161 110 146 70z m194 -203
c15 -5 -22 -9 -96 -12 -86 -4 -128 -10 -145 -20 -13 -9 -60 -28 -104 -43 -44
-15 -86 -30 -93 -33 -11 -4 -12 -1 -3 16 28 51 188 100 326 99 50 0 101 -3
115 -7z m49 -111 c46 -6 97 -18 115 -26 17 -8 22 -12 11 -8 -68 19 -151 26
-310 22 -177 -3 -181 -4 -240 -33 -74 -37 -99 -76 -99 -154 l0 -54 -14 33
c-28 70 12 151 95 191 74 36 279 49 442 29z m225 -95 c9 -14 19 -40 22 -58 4
-29 4 -29 -10 8 -8 22 -32 55 -53 74 -37 32 -37 33 -7 18 17 -9 39 -27 48 -42z
m-317 21 c-15 -37 -122 -197 -162 -240 l-46 -49 -39 12 c-22 6 -52 22 -67 35
-26 22 -28 30 -28 94 0 56 4 74 20 92 43 48 111 67 249 69 63 1 77 -2 73 -13z
m-1212 -16 c10 -11 16 -20 13 -20 -3 0 -13 9 -23 20 -10 11 -16 20 -13 20 3 0
13 -9 23 -20z m1400 -10 c3 -6 -1 -7 -9 -4 -18 7 -21 14 -7 14 6 0 13 -4 16
-10z m60 -119 c0 -60 -3 -73 -24 -95 -36 -38 -44 -32 -20 14 17 32 20 53 17
98 -3 31 -9 66 -13 77 -7 18 -6 18 16 -3 21 -19 24 -32 24 -91z m-319 -80 c5
-5 18 -11 29 -14 11 -3 2 -5 -19 -6 -29 -1 -48 -9 -68 -28 -21 -20 -28 -23
-28 -11 0 15 53 68 69 68 4 0 11 -4 17 -9z m544 -78 c0 -13 -3 -14 -22 -1 -13
8 -40 25 -61 37 -29 18 -35 26 -27 36 9 11 21 7 61 -21 27 -20 49 -43 49 -51z
m-2930 9 c31 -65 21 -73 -26 -20 -45 49 -56 91 -24 86 14 -2 30 -24 50 -66z
m4848 43 c0 -14 -5 -25 -10 -25 -6 0 -25 -12 -43 -27 -17 -16 -47 -36 -65 -46
-18 -10 -30 -20 -27 -23 3 -3 -6 -22 -19 -41 -14 -22 -24 -50 -24 -72 0 -35
-40 -111 -59 -111 -4 0 -13 11 -19 25 -10 21 -6 38 23 112 20 47 41 93 47 101
7 8 40 27 75 44 34 16 73 42 85 58 28 36 36 37 36 5z m-2848 7 c0 -8 -100 -72
-113 -72 -11 0 -8 25 6 44 11 15 42 26 100 35 4 0 7 -3 7 -7z m-1865 -87 l60
-20 43 -89 c23 -49 41 -94 39 -100 -8 -24 -65 50 -72 95 -9 57 -27 76 -88 94
-49 15 -87 39 -87 57 0 5 10 3 23 -4 12 -7 49 -22 82 -33z m2529 11 c-3 -9
-13 -16 -22 -16 -13 0 -12 3 3 20 20 23 29 21 19 -4z m2151 4 c-4 -6 -29 -22
-57 -36 -27 -14 -48 -21 -44 -16 3 5 23 17 46 27 22 10 40 22 40 27 0 4 5 8
11 8 5 0 7 -5 4 -10z m-2341 -20 c5 -5 -9 -6 -31 -3 -80 11 -163 -56 -163
-131 -1 -34 -2 -38 -11 -23 -27 46 30 147 95 166 33 10 95 5 110 -9z m-374
-52 c17 -39 22 -71 22 -125 -1 -57 2 -75 16 -85 9 -7 26 -24 37 -37 16 -19 -1
-13 -80 29 -146 77 -165 90 -165 109 0 33 51 120 83 140 49 32 62 27 87 -31z
m-222 0 c3 -15 -4 -18 -35 -19 -21 0 -33 -3 -27 -5 11 -5 -51 -74 -66 -74 -5
0 -11 15 -13 33 -2 17 -5 -30 -5 -105 l-2 -138 69 0 70 0 3 53 3 52 11 -55 c5
-30 8 -61 6 -67 -3 -9 -31 -13 -93 -13 l-89 0 0 180 0 181 82 -3 c70 -3 83 -6
86 -20z m1202 13 c0 -15 -25 -20 -82 -16 l-55 3 -6 -100 c-3 -56 -3 -106 -1
-113 3 -6 17 -10 32 -8 15 2 34 -1 42 -7 13 -9 13 -11 0 -20 -8 -6 -27 -9 -42
-7 -25 3 -28 0 -28 -25 l0 -29 68 3 67 3 3 33 c5 51 22 37 22 -18 l0 -51 -92
3 -93 3 4 170 c2 94 5 173 8 178 6 10 153 9 153 -2z m-3099 -23 c48 -26 49
-38 7 -38 -26 0 -30 -3 -18 -11 12 -8 11 -9 -5 -6 -11 3 -32 8 -47 11 -21 5
-28 12 -28 30 0 43 31 48 91 14z m2454 0 c30 -13 33 -28 5 -28 -34 0 -73 -24
-85 -52 -10 -25 -13 -27 -30 -14 -17 12 -17 17 -5 45 12 30 50 60 77 61 7 0
24 -5 38 -12z m2495 -10 c0 -6 -14 -8 -32 -5 -18 3 -27 3 -20 0 19 -7 4 -23
-23 -23 -13 0 -27 -4 -30 -10 -8 -12 -45 -13 -45 -1 0 5 23 20 52 33 50 24 98
26 98 6z m-2210 -28 c13 -9 13 -11 0 -20 -21 -14 -40 -12 -40 3 0 26 16 33 40
17z m-2744 -67 l59 -27 -58 -9 c-65 -11 -87 -1 -87 39 0 31 14 30 86 -3z
m2784 -3 c-26 -17 -81 -23 -103 -12 -19 9 -16 11 24 11 29 1 51 7 59 16 10 12
16 13 24 5 8 -8 7 -13 -4 -20z m2127 -15 c-20 -18 -40 -25 -70 -25 -53 0 -38
17 30 36 67 18 72 17 40 -11z m-3232 6 c-6 -5 -64 -40 -130 -77 -66 -37 -143
-81 -170 -99 -47 -30 -53 -31 -85 -19 -45 16 -119 17 -191 2 -40 -8 -65 -9
-80 -2 -21 9 -16 13 47 39 87 36 161 38 221 7 l41 -21 39 35 c53 49 137 104
192 125 49 19 132 26 116 10z m1630 -20 c22 -10 77 -46 122 -79 l82 -61 43 19
c24 11 55 20 70 20 39 0 128 -36 163 -66 l30 -25 -30 6 c-154 30 -153 30 -219
12 -85 -22 -89 -22 -82 7 5 21 -3 31 -56 71 -70 52 -124 82 -183 101 -38 12
-38 13 -10 13 17 0 48 -8 70 -18z m-2855 -10 c15 -30 13 -30 -30 -9 -22 11
-40 22 -40 24 0 2 13 4 30 4 19 0 33 -7 40 -19z m4076 8 c8 -14 -4 -25 -38
-33 -35 -8 -39 16 -5 32 29 14 34 14 43 1z m-3956 -52 l45 -22 0 -87 c0 -47
-3 -89 -6 -93 -4 -3 -23 0 -42 8 l-35 15 5 89 6 88 -29 12 c-22 8 -24 11 -9
12 11 0 40 -10 65 -22z m3827 0 c-14 -10 -15 -21 -6 -90 12 -85 5 -107 -36
-107 -30 0 -45 37 -45 115 0 69 3 73 60 91 40 12 51 9 27 -9z m-4442 3 c14 -5
23 -15 20 -20 -4 -6 9 -17 27 -26 l33 -15 -40 6 c-37 6 -75 34 -75 56 0 11 3
11 35 -1z m1837 -16 c3 -3 4 -14 1 -25 -8 -28 -33 -24 -33 6 0 23 18 34 32 19z
m3118 -9 c-7 -8 -20 -15 -29 -15 -9 0 -30 -9 -47 -19 -31 -19 -32 -19 -27 -1
5 17 64 45 102 49 11 1 11 -2 1 -14z m-4208 -18 c7 -8 30 -16 50 -20 20 -3 65
-18 100 -33 34 -15 79 -27 99 -26 40 1 82 -32 84 -67 1 -18 -1 -17 -30 5 -18
13 -39 24 -49 24 -13 0 -11 -10 15 -55 39 -69 32 -83 -10 -21 -39 57 -70 80
-134 104 -94 35 -97 35 -97 13 0 -11 -5 -42 -12 -70 -12 -51 -23 -60 -61 -45
-12 4 -13 13 -5 47 5 23 7 68 3 100 -5 52 -4 57 14 57 11 0 26 -6 33 -13z
m3570 -34 c-2 -27 1 -67 6 -90 7 -30 6 -40 -2 -37 -6 2 -20 -3 -31 -12 -11 -8
-14 -12 -6 -8 9 5 12 3 7 -4 -25 -41 -56 21 -56 113 0 57 7 71 35 78 48 12 50
9 47 -40z m-112 -12 c0 -14 -15 -22 -67 -36 -137 -36 -193 -78 -239 -179 -13
-28 -23 -44 -23 -36 -1 22 57 142 82 168 29 32 82 58 164 81 86 25 83 25 83 2z
m-2067 -18 c25 9 126 -68 127 -97 0 -4 -7 -5 -15 -2 -8 3 -23 9 -32 13 -13 5
-10 -3 10 -26 25 -30 27 -38 21 -82 -4 -31 -3 -49 4 -49 5 0 13 -7 16 -16 6
-15 -138 99 -151 119 -8 13 -32 126 -33 151 0 18 1 18 20 1 10 -9 26 -15 33
-12z m-112 -146 c1 -54 -2 -101 -5 -104 -3 -4 -6 16 -6 44 0 27 -3 79 -6 114
-5 47 -4 61 5 54 6 -6 11 -51 12 -108z m1902 104 c16 -6 7 -14 -45 -45 -34
-22 -75 -50 -90 -64 -16 -14 -28 -22 -28 -18 0 16 54 77 93 106 44 32 43 32
70 21z m-981 -218 c7 -9 7 -13 0 -13 -22 0 -32 40 -32 128 0 125 14 126 18 1
1 -57 8 -109 14 -116z m268 113 c0 -58 -3 -107 -7 -109 -5 -3 -8 44 -8 104 0
60 3 109 7 109 5 0 8 -47 8 -104z m-1468 13 c-2 -44 1 -94 7 -111 9 -26 8 -29
-5 -24 -9 3 -18 6 -20 6 -7 0 -4 196 3 203 15 16 18 3 15 -74z m-1154 -7 c3
-16 -1 -19 -17 -15 -24 6 -23 5 -15 28 9 21 28 14 32 -13z m1382 11 c0 -8 -27
-13 -87 -15 -83 -3 -87 -4 -94 -28 -6 -21 -7 -18 -8 15 l-1 40 95 0 c68 0 95
-3 95 -12z m1178 8 c6 -1 12 -5 12 -11 0 -6 -40 -10 -100 -10 -82 0 -100 3
-100 15 0 14 50 16 188 6z m1322 -21 c0 -5 7 -7 15 -4 8 4 15 1 15 -5 0 -16
-36 -13 -50 4 -10 12 -10 15 4 15 9 0 16 -4 16 -10z m-1463 -45 c3 -9 3 -18 0
-21 -10 -10 -47 7 -47 22 0 19 39 18 47 -1z m-1197 -168 c0 -75 21 -124 55
-133 35 -9 60 17 73 76 l10 45 1 -67 c1 -62 -1 -69 -24 -84 -31 -20 -103 -14
-121 10 -12 17 -26 199 -17 223 11 28 23 -9 23 -70z m1189 -43 c1 -76 21 -100
75 -90 41 8 47 20 56 116 l7 75 1 -90 c2 -121 -7 -139 -77 -143 -29 -2 -58 2
-65 8 -15 12 -32 213 -19 232 10 18 20 -31 22 -108z m-668 79 c13 -16 12 -17
-3 -4 -10 7 -18 15 -18 17 0 8 8 3 21 -13z m-168 -34 c23 -5 53 -19 67 -30
l25 -20 -32 6 -32 6 -3 -53 c-3 -51 -4 -53 -34 -56 -16 -2 -42 2 -57 7 -26 10
-27 14 -27 81 0 68 1 70 26 70 14 0 44 -5 67 -11z m-139 -5 c11 -4 16 -19 16
-45 0 -38 -19 -57 -21 -21 0 10 -3 12 -6 5 -5 -15 -33 -18 -33 -4 0 24 13 71
20 71 5 0 15 -3 24 -6z m-278 -193 c16 -20 23 -47 29 -114 8 -105 -5 -110 -54
-17 -31 58 -41 132 -24 176 6 17 7 17 17 0 6 -10 21 -30 32 -45z m1165 -64
c-8 -8 -11 -5 -11 9 0 27 14 41 18 19 2 -9 -1 -22 -7 -28z m-21 3 c0 -6 -32
-10 -75 -10 l-75 0 0 -94 0 -95 43 -6 c24 -4 63 -5 87 -3 28 2 44 -1 47 -9 6
-18 -188 -18 -205 -1 -13 13 -18 209 -5 221 11 11 183 8 183 -3z m-738 -21
c15 -8 15 -13 4 -47 -12 -33 -16 -37 -42 -33 -42 5 -44 7 -44 57 l0 46 33 -7
c17 -4 40 -11 49 -16z m166 -15 c20 -4 23 -10 21 -49 l-3 -45 -63 0 c-59 0
-64 2 -73 26 -6 14 -10 37 -10 52 0 26 1 27 52 24 29 -1 63 -5 76 -8z m170 -3
c9 -5 12 -25 10 -57 l-3 -49 -48 -3 c-43 -3 -48 -1 -57 23 -6 15 -10 42 -10
61 0 34 0 34 48 34 26 0 53 -4 60 -9z m160 -33 l3 -38 -40 0 c-21 0 -46 -3
-55 -6 -13 -5 -16 1 -16 33 0 22 3 43 7 47 4 4 28 6 53 4 44 -3 45 -4 48 -40z
m-818 -60 c15 -71 34 -98 69 -98 35 0 50 17 58 65 7 41 23 29 23 -16 0 -87
-114 -108 -155 -29 -13 25 -22 130 -11 130 2 0 9 -24 16 -52z m309 6 c3 -4 -2
-4 -12 -1 -10 4 -27 7 -38 7 -10 0 -19 4 -19 9 0 10 58 -3 69 -15z m861 -89
c35 -42 88 -13 97 52 6 47 23 49 23 2 0 -37 -23 -84 -45 -93 -59 -22 -115 18
-115 82 0 54 14 62 22 12 4 -23 12 -48 18 -55z m-360 75 c0 -5 -20 -10 -44
-10 -25 0 -48 5 -51 10 -4 6 13 10 44 10 28 0 51 -4 51 -10z m-353 -26 c-3 -3
-12 -4 -19 -1 -8 3 -5 6 6 6 11 1 17 -2 13 -5z m-550 -12 c23 -15 19 -45 -7
-52 -23 -6 -25 -11 -25 -58 1 -29 0 -52 -2 -52 -8 0 -33 63 -33 85 0 33 26 85
43 85 6 0 17 -4 24 -8z m153 -210 c-11 -35 -20 -72 -20 -83 0 -10 -4 -19 -10
-19 -17 0 -13 44 16 169 4 21 7 22 19 10 12 -12 12 -23 -5 -77z m-199 -42 c27
-15 24 -26 -10 -40 -36 -14 -106 -78 -115 -103 -10 -31 -31 -13 -30 27 2 42
39 90 89 112 37 16 41 17 66 4z m1360 -51 c-5 -13 -10 -19 -10 -12 -1 15 10
45 15 40 3 -2 0 -15 -5 -28z m299 -39 c21 -41 26 -85 11 -94 -5 -4 -8 9 -7 26
1 18 -6 50 -16 71 -25 50 -14 48 12 -3z m-1240 5 c0 -2 -6 -2 -14 1 -8 3 -16
-2 -19 -13 -3 -12 -5 -8 -6 10 -1 25 1 27 19 17 11 -6 20 -13 20 -15z m382 -1
c62 -11 32 -24 -53 -24 l-79 0 0 -75 0 -75 54 0 c67 0 117 -10 110 -21 -8 -14
-158 -11 -172 3 -16 16 -16 170 0 186 13 13 80 16 140 6z m93 -4 c3 -5 -1 -10
-10 -10 -9 0 -13 5 -10 10 3 6 8 10 10 10 2 0 7 -4 10 -10z m-508 -52 c-3 -8
-6 -5 -6 6 -1 11 2 17 5 13 3 -3 4 -12 1 -19z m-320 -73 c-60 -55 -187 -106
-187 -75 0 6 7 10 15 10 31 0 125 42 167 75 60 47 62 43 5 -10z m246 -23 l44
-38 -25 -23 c-13 -12 -26 -20 -28 -19 -1 2 -13 26 -25 53 -13 28 -25 53 -27
58 -10 19 21 3 61 -31z m1312 -52 c4 -6 -5 -10 -19 -10 -14 0 -26 5 -26 10 0
6 9 10 19 10 11 0 23 -4 26 -10z m-1351 -86 c4 -9 5 -18 4 -19 -37 -27 -126
-101 -134 -111 -7 -9 -19 -11 -39 -5 l-29 7 44 32 c25 17 65 49 90 71 51 46
55 47 64 25z m1250 -57 c3 4 6 1 6 -6 0 -21 -32 -24 -66 -6 -48 25 -42 36 10
20 24 -8 47 -11 50 -8z m-1544 6 c-8 -3 -17 -9 -20 -13 -3 -4 -11 -2 -18 6
-11 12 -8 14 20 13 18 0 26 -3 18 -6z m-35 -89 c28 -7 24 -24 -6 -24 -18 0
-20 -4 -14 -32 4 -18 18 -57 31 -87 29 -66 30 -71 2 -63 -22 5 -22 5 3 -29
l24 -34 -32 23 c-17 12 -41 38 -53 58 -12 19 -25 33 -27 30 -3 -3 -6 -29 -6
-58 0 -40 -1 -46 -6 -23 -6 26 -12 13 -54 -105 -26 -74 -50 -156 -53 -182 -5
-36 -10 -45 -22 -41 -12 5 -14 20 -9 82 9 111 46 237 148 509 9 22 9 22 29 2
11 -11 31 -22 45 -26z m1418 13 c-5 -8 -8 -7 -11 1 -2 7 -9 9 -14 6 -7 -4 -8
-2 -4 4 4 6 13 9 21 6 8 -4 12 -11 8 -17z m-168 -17 c9 -14 -133 -134 -234
-198 l-26 -16 19 22 c19 22 18 22 -30 -4 -55 -29 -55 -29 66 71 36 30 87 76
114 104 40 40 53 48 67 40 10 -5 21 -13 24 -19z m-797 -74 c34 -33 62 -64 62
-68 0 -14 -31 -9 -47 7 -16 17 -38 10 -26 -8 10 -17 -54 31 -100 75 l-40 38
23 25 c27 29 22 32 128 -69z m852 13 c0 -15 -99 -129 -112 -129 -5 0 -6 6 -1
13 4 6 8 17 8 22 0 11 85 101 98 104 4 0 7 -4 7 -10z m-605 -656 c0 -32 4 -78
8 -103 l8 -45 -16 34 c-8 19 -18 52 -22 75 l-6 40 -21 -54 c-18 -47 -24 -55
-44 -52 -13 2 -20 8 -16 15 4 7 -5 0 -20 -15 -15 -16 -32 -28 -38 -28 -18 0
-2 81 21 103 16 17 123 82 141 86 3 0 5 -25 5 -56z"/>
<path d="M3832 8717 c-8 -10 -6 -13 7 -13 11 0 17 6 14 13 -3 7 -6 13 -8 13
-1 0 -7 -6 -13 -13z"/>
<path d="M3030 8310 c0 -5 7 -10 15 -10 8 0 15 5 15 10 0 6 -7 10 -15 10 -8 0
-15 -4 -15 -10z"/>
<path d="M6697 7036 c-9 -13 -87 -106 -173 -207 -87 -101 -149 -177 -138 -169
10 8 46 38 79 66 60 50 168 133 278 213 57 41 57 42 43 69 -12 22 -52 52 -70
52 -2 0 -11 -11 -19 -24z"/>
<path d="M3417 7035 c-20 -14 -37 -30 -37 -35 0 -5 18 -21 41 -37 23 -15 97
-72 165 -126 68 -53 124 -95 124 -92 0 4 -26 36 -58 73 -31 37 -88 106 -125
155 -38 48 -69 87 -71 87 -1 0 -18 -11 -39 -25z"/>
<path d="M4928 6664 c-62 -19 -98 -62 -98 -117 0 -78 15 -73 47 15 29 79 32
83 67 92 20 5 36 13 36 18 0 4 -1 8 -2 7 -2 0 -24 -7 -50 -15z m-52 -72 c-21
-40 -41 -53 -31 -21 8 26 36 62 42 55 3 -2 -3 -18 -11 -34z"/>
<path d="M4740 5603 c0 -5 13 -8 29 -8 16 0 27 3 24 8 -2 4 -15 7 -29 7 -13 0
-24 -3 -24 -7z"/>
<path d="M4740 5568 c0 -11 8 -18 20 -18 11 0 20 5 20 11 0 5 -5 7 -11 3 -6
-3 -15 0 -20 7 -7 11 -9 10 -9 -3z"/>
<path d="M4765 5530 l-30 -8 33 -1 c17 0 32 4 32 9 0 6 -1 9 -2 9 -2 -1 -16
-5 -33 -9z"/>
<path d="M5085 5260 c-30 -8 -30 -8 8 -9 20 0 37 4 37 9 0 11 -2 11 -45 0z"/>
<path d="M7652 7543 c-5 -10 -12 -54 -15 -98 -8 -111 -39 -201 -98 -289 -120
-180 -315 -285 -537 -290 -88 -2 -94 -4 -125 -33 -36 -34 -204 -167 -412 -326
-77 -59 -178 -137 -225 -173 -47 -36 -94 -72 -105 -80 l-20 -15 20 -15 c75
-55 98 -66 122 -55 43 20 105 13 171 -19 35 -17 66 -30 68 -30 2 0 -1 12 -6
26 -6 14 -10 41 -10 60 0 80 47 135 172 201 94 49 154 108 170 168 15 57 33
59 24 4 -12 -74 -52 -141 -124 -210 -101 -96 -114 -156 -47 -219 l23 -22 54
20 c29 11 103 32 163 47 65 16 126 37 148 53 25 17 52 26 80 26 41 1 43 2 68
57 29 62 66 95 149 132 32 14 66 39 82 60 51 66 138 73 203 16 38 -34 60 -87
51 -129 -3 -19 0 -33 10 -41 33 -27 46 -70 40 -128 -4 -31 -6 -80 -6 -108 2
-96 -36 -145 -160 -209 -41 -21 -81 -44 -88 -51 -7 -7 -18 -13 -23 -13 -6 0
-21 -13 -35 -29 -53 -64 -759 -340 -911 -357 -54 -5 -173 2 -340 22 -62 8 -65
2 -23 -51 17 -21 30 -45 30 -53 0 -9 -18 -35 -40 -57 -23 -23 -49 -57 -58 -75
-12 -24 -29 -38 -60 -49 -32 -12 -41 -19 -35 -31 4 -8 8 -45 9 -82 2 -64 3
-68 42 -103 88 -79 112 -202 60 -304 -16 -29 -28 -68 -28 -86 0 -31 3 -34 53
-50 74 -24 143 -71 177 -121 35 -50 36 -62 10 -107 l-20 -34 21 -19 c35 -31
69 -91 83 -147 l13 -52 13 75 c24 143 2 267 -85 470 -67 155 -78 207 -73 329
3 83 8 105 36 163 49 101 127 180 226 227 125 61 141 62 79 7 -31 -28 -64 -71
-82 -108 -27 -52 -31 -72 -31 -138 0 -94 29 -160 97 -220 41 -36 133 -80 167
-80 8 0 16 17 20 43 16 108 84 191 229 281 86 54 120 99 132 175 11 65 21 36
40 -110 26 -194 11 -268 -83 -411 -60 -93 -76 -147 -70 -236 5 -69 24 -120 61
-159 l20 -23 34 39 c23 27 63 54 131 86 53 25 103 49 111 53 8 4 26 30 40 57
23 45 26 61 25 150 0 82 -5 114 -28 180 -48 139 -43 256 16 382 26 56 127 160
248 255 47 37 102 82 122 99 69 59 58 23 -41 -140 -65 -107 -85 -167 -79 -239
5 -51 9 -60 47 -93 60 -53 106 -59 179 -22 94 47 151 154 179 333 27 174 6
350 -62 510 -50 120 -84 266 -83 360 l1 85 8 -65 c13 -101 70 -202 201 -360
62 -75 118 -138 123 -140 6 -3 17 10 26 27 9 18 20 29 25 25 4 -4 2 1 -5 11
-8 9 -12 20 -9 22 6 6 70 -70 130 -155 91 -128 152 -281 184 -458 22 -123 29
-401 15 -552 -23 -237 -121 -640 -155 -640 -22 0 -127 75 -176 125 l-45 46 37
-15 c53 -23 136 -30 186 -17 39 11 58 31 29 31 -36 0 -214 148 -268 222 l-20
27 35 -14 c39 -16 143 -20 165 -6 11 7 6 13 -20 26 -59 30 -116 83 -158 146
-23 34 -41 64 -41 68 0 3 23 4 52 2 l52 -3 -61 66 c-33 37 -77 98 -98 137 -20
39 -40 67 -44 62 -4 -4 -13 -28 -20 -53 -19 -66 -67 -155 -106 -199 -19 -21
-35 -41 -35 -44 0 -9 58 3 98 19 17 7 32 11 32 8 0 -16 -66 -135 -98 -177 -20
-26 -73 -73 -116 -103 -88 -59 -85 -63 33 -43 36 6 81 19 99 30 17 10 32 15
32 10 0 -4 -27 -48 -59 -97 -69 -104 -129 -165 -226 -230 l-70 -46 57 6 c79 8
196 47 257 85 28 17 51 27 51 22 0 -20 -87 -137 -146 -196 -61 -61 -168 -125
-207 -125 -9 0 -18 -4 -22 -9 -9 -16 104 -33 170 -26 34 3 85 17 114 30 51 24
51 24 40 3 -23 -43 -146 -154 -206 -186 -71 -37 -83 -38 -143 -11 -40 18 -120
84 -120 99 0 3 47 4 105 2 62 -2 105 1 105 6 0 6 -12 13 -27 16 -47 11 -130
75 -173 132 -60 79 -60 80 10 76 l60 -4 -63 64 c-38 38 -76 90 -96 131 l-35
68 -27 -77 c-31 -85 -61 -139 -115 -209 -19 -26 -34 -48 -32 -49 11 -9 71 19
98 46 l32 33 -27 -55 c-15 -30 -56 -83 -90 -117 l-63 -63 43 0 c24 0 56 5 71
10 15 6 29 9 31 6 10 -9 -119 -134 -157 -151 -22 -10 -40 -22 -40 -26 0 -5 33
-9 73 -11 l72 -3 -44 -43 c-24 -24 -73 -59 -108 -78 -34 -20 -63 -42 -63 -49
0 -31 134 -34 199 -5 l44 20 -25 -32 c-31 -41 -134 -115 -170 -123 -21 -5 -40
2 -85 34 -57 39 -153 124 -153 135 0 3 35 6 78 6 83 1 133 14 187 51 l35 24
-58 6 c-83 9 -130 24 -197 64 -54 32 -141 112 -132 122 3 2 16 -1 31 -7 56
-21 203 -4 269 32 21 11 19 12 -23 23 -25 6 -56 17 -70 25 -45 23 -126 89
-158 129 l-31 39 57 -5 c31 -3 72 -1 90 4 l33 8 -45 32 c-41 29 -145 155 -146
177 0 4 8 5 18 1 33 -15 72 -17 140 -10 l67 7 -36 19 c-40 20 -121 106 -146
153 -9 17 -24 55 -33 85 l-17 53 -21 -86 c-27 -111 -70 -201 -125 -259 -34
-37 -39 -47 -25 -47 11 0 32 7 48 15 17 9 30 12 30 7 0 -19 -66 -111 -118
-165 l-56 -57 41 0 c23 0 54 5 69 10 15 6 29 8 32 6 9 -9 -49 -76 -92 -108
l-41 -30 42 4 42 3 -16 -25 c-27 -43 -66 -81 -113 -108 l-45 -27 71 -3 c65 -3
97 4 169 34 17 7 16 2 -9 -32 -81 -110 -188 -193 -294 -229 l-64 -21 43 -13
c61 -19 181 -26 218 -13 17 6 31 9 31 7 0 -9 -187 -144 -230 -166 -25 -12 -70
-30 -100 -40 -54 -17 -55 -17 -27 -28 48 -19 150 -31 207 -25 l55 7 -45 -48
c-51 -53 -140 -117 -202 -145 l-42 -18 38 -7 c20 -4 61 -5 91 -3 30 3 55 3 55
2 0 -2 -19 -13 -42 -26 -65 -33 -136 -46 -198 -38 -99 14 -126 37 -38 32 l53
-3 -27 23 c-23 20 -78 99 -78 113 0 2 12 0 26 -5 14 -6 35 -10 47 -10 21 0 21
0 -2 16 -22 16 -81 100 -81 116 0 4 12 3 27 -3 36 -13 51 4 20 24 -28 18 -72
85 -63 94 3 4 12 1 18 -5 7 -7 20 -12 30 -12 15 0 12 7 -16 35 -19 19 -48 62
-65 97 -17 35 -31 55 -31 45 0 -28 -49 -119 -83 -154 -33 -35 -24 -43 27 -23
14 5 26 7 26 4 0 -10 -57 -89 -79 -108 -32 -29 -26 -39 19 -32 22 3 40 2 40
-3 0 -14 -104 -106 -141 -124 -28 -13 -31 -17 -16 -23 10 -3 38 -4 62 -2 43 5
43 5 32 -19 -6 -13 -38 -42 -71 -63 l-61 -40 53 0 c29 0 62 5 73 10 10 6 19 7
19 2 0 -16 -70 -91 -107 -113 -32 -20 -34 -23 -17 -30 10 -4 33 -8 49 -9 l30
-1 -35 -30 c-46 -40 -130 -89 -155 -90 -39 -1 38 -28 83 -29 53 0 52 -15 -3
-44 -45 -23 -135 -33 -161 -17 -16 9 -14 10 15 11 l34 0 -20 23 c-17 18 -53
95 -53 112 0 3 7 5 17 5 15 0 15 1 0 18 -9 10 -23 33 -31 52 l-14 35 -12 -30
c-6 -16 -23 -45 -36 -62 -25 -32 -25 -33 -4 -33 l21 0 -22 -31 c-12 -17 -36
-40 -53 -50 l-31 -19 33 0 c41 0 40 -9 -5 -40 l-37 -25 -304 -3 -304 -4 -34
33 c-42 41 -43 50 -2 38 18 -5 34 -9 36 -9 1 0 -13 14 -33 31 -20 18 -43 45
-51 61 -15 29 -15 30 7 23 21 -7 21 -6 -4 26 -14 19 -29 46 -32 62 -4 15 -10
27 -14 27 -3 -1 -21 -26 -38 -56 -18 -31 -26 -51 -18 -44 41 34 -13 -107 -55
-145 -19 -18 -23 -18 -73 -2 -28 10 -63 26 -77 37 l-25 20 50 1 c45 0 140 26
105 28 -29 2 -135 60 -170 93 l-34 33 49 5 50 5 -42 24 c-34 20 -103 89 -103
103 0 2 30 2 68 0 l67 -4 -46 30 c-45 29 -89 76 -89 94 0 5 12 8 28 7 15 -1
40 -1 56 -1 30 2 30 2 -17 32 -41 26 -107 100 -107 120 0 4 21 5 48 3 45 -5
46 -4 25 11 -19 14 -83 108 -83 122 0 2 9 0 19 -6 11 -5 28 -10 38 -10 15 0
15 2 -4 15 -29 20 -60 72 -82 137 l-18 53 -17 -52 c-9 -28 -35 -72 -57 -97
-33 -37 -37 -46 -22 -46 10 0 29 7 42 16 l23 16 -22 -42 c-12 -24 -33 -54 -47
-68 l-25 -25 31 5 c17 3 31 2 31 -2 0 -10 -32 -54 -69 -92 -37 -40 -32 -45 27
-29 17 5 32 7 32 3 0 -13 -42 -76 -69 -106 l-26 -29 48 6 c49 7 62 -4 28 -23
-46 -24 -222 -2 -274 35 -20 14 -19 15 28 16 63 0 133 13 120 20 -5 4 -21 9
-35 12 -56 14 -240 156 -240 185 0 4 35 6 79 4 78 -4 191 12 191 27 0 5 -19
11 -42 15 -61 10 -148 57 -244 132 -46 36 -84 66 -84 67 0 1 40 2 88 3 48 0
109 6 136 14 l48 13 -61 22 c-77 28 -198 119 -251 188 -45 60 -49 73 -20 57
33 -18 112 -29 163 -23 55 7 59 16 17 33 -29 12 -120 105 -120 122 0 5 17 8
38 8 l37 0 -31 19 c-30 18 -104 98 -104 112 0 5 12 4 28 -1 15 -5 47 -11 70
-13 l44 -5 -50 52 c-50 51 -132 162 -132 178 0 5 12 2 28 -5 15 -8 40 -17 55
-21 27 -6 26 -4 -20 43 -70 71 -115 172 -138 306 l-7 40 -18 -57 c-32 -105
-80 -168 -165 -219 l-40 -24 59 -9 c37 -5 75 -5 102 1 24 6 44 7 44 3 0 -22
-89 -137 -132 -171 -48 -38 -49 -38 -23 -45 14 -3 53 -4 85 -2 33 2 60 1 60
-2 0 -4 -30 -36 -67 -72 -73 -70 -126 -102 -188 -114 l-40 -7 55 -25 c64 -29
167 -39 224 -23 22 6 42 8 45 5 3 -2 -17 -27 -45 -55 -77 -78 -199 -129 -313
-129 l-36 0 31 -20 c54 -35 143 -60 213 -60 l65 0 -39 -41 c-22 -22 -73 -61
-113 -87 -51 -32 -69 -48 -60 -54 8 -6 4 -7 -12 -3 -43 12 -128 67 -172 113
l-43 43 39 -16 c49 -21 150 -22 196 -3 l35 15 -50 22 c-76 34 -141 78 -171
118 l-27 36 36 -7 c39 -7 107 1 107 14 0 4 -12 12 -27 19 -40 18 -98 67 -135
113 -22 28 -27 40 -15 35 31 -12 147 -20 147 -11 0 5 -16 18 -36 29 -43 23
-144 150 -144 180 0 4 14 -5 31 -19 17 -14 36 -26 42 -26 7 0 23 -3 37 -7 23
-6 21 -3 -16 40 -49 55 -99 148 -130 237 l-22 65 -11 -29 c-20 -50 -99 -162
-142 -201 l-41 -37 61 4 c34 1 61 1 61 -1 0 -2 -16 -25 -36 -52 -44 -61 -102
-109 -174 -145 -66 -34 -56 -38 72 -32 48 2 88 1 88 -2 0 -10 -62 -66 -104
-94 -54 -36 -91 -33 -162 12 -54 35 -210 189 -201 199 3 2 20 -5 38 -16 55
-32 162 -45 234 -28 l60 14 -30 12 c-86 35 -128 64 -210 146 -53 52 -103 113
-120 144 l-28 55 31 -22 c53 -38 156 -82 228 -97 106 -23 113 -19 48 24 -94
62 -207 189 -260 293 -26 52 -23 60 12 27 16 -15 43 -23 101 -30 43 -5 90 -11
105 -15 17 -3 28 -1 28 5 0 6 -5 11 -10 11 -23 0 -142 85 -181 128 -38 44
-109 168 -109 192 0 6 9 4 23 -4 24 -16 97 -32 97 -22 0 3 -20 31 -45 62 -54
65 -77 110 -100 187 -9 31 -19 57 -23 57 -4 0 -24 -34 -46 -76 -21 -41 -61
-99 -87 -129 -27 -29 -49 -56 -49 -60 0 -4 23 -4 50 0 46 6 50 5 43 -12 -25
-68 -132 -178 -204 -209 -33 -15 -37 -20 -22 -25 31 -13 116 -9 158 6 22 8 42
15 43 15 2 0 -15 -24 -38 -52 -56 -72 -166 -167 -219 -191 -31 -14 -40 -22
-32 -30 19 -19 135 -21 187 -3 26 9 49 14 51 12 13 -13 -186 -156 -216 -156
-9 0 -59 155 -85 265 -89 369 -96 791 -19 1065 22 78 80 209 109 247 13 17 24
35 24 39 0 16 114 157 130 161 10 3 21 11 24 19 6 16 36 19 36 4 0 -5 9 -10
21 -10 13 0 18 -4 14 -12 -4 -7 16 10 43 39 118 124 231 327 232 416 0 26 4
36 11 31 9 -5 10 -38 6 -113 -6 -107 -43 -263 -85 -361 -48 -113 -66 -249 -52
-382 16 -145 45 -249 91 -316 54 -81 97 -107 174 -107 52 0 67 4 98 28 99 75
88 175 -38 357 -67 96 -74 112 -52 107 6 -1 11 5 9 13 -2 8 16 -3 40 -26 24
-23 77 -66 118 -96 228 -166 299 -377 215 -633 -23 -68 -26 -93 -23 -170 3
-75 8 -98 31 -140 26 -47 36 -55 123 -98 52 -26 115 -66 141 -89 l45 -43 28
33 c57 69 77 208 41 287 -10 22 -43 76 -73 121 -74 108 -84 152 -68 296 13
121 8 176 -21 252 -31 78 4 39 53 -58 51 -102 56 -108 158 -173 47 -30 100
-69 119 -86 38 -37 91 -139 91 -179 0 -50 7 -57 48 -46 149 41 236 149 237
293 0 90 -32 161 -104 233 -29 29 -48 52 -44 52 4 0 49 -20 99 -45 144 -72
231 -176 269 -322 32 -123 14 -238 -63 -403 -53 -115 -87 -208 -78 -217 3 -3
27 13 53 37 62 54 152 104 235 130 l66 20 -9 40 c-5 21 -18 62 -29 90 -38 95
-22 184 47 260 31 35 43 56 43 79 0 22 -5 31 -17 31 -9 0 -37 10 -61 21 -93
45 -95 154 -8 328 15 29 26 54 24 56 -2 2 -75 -3 -163 -12 -189 -17 -251 -13
-365 23 -68 21 -520 199 -681 268 -31 13 -61 38 -104 85 -5 6 -69 40 -142 76
-181 89 -178 85 -186 337 -1 24 8 49 27 76 24 34 27 46 21 84 -5 35 -2 49 17
78 55 82 143 89 235 19 30 -22 91 -57 136 -78 87 -40 120 -70 150 -137 19 -41
19 -41 63 -36 37 4 59 -2 132 -36 48 -22 111 -45 140 -51 29 -6 66 -18 81 -26
26 -13 30 -13 44 3 50 56 38 105 -47 192 -70 70 -101 127 -111 205 l-6 50 31
-62 c35 -71 76 -107 193 -174 104 -58 131 -100 125 -193 l-4 -63 50 25 c65 33
123 39 185 18 l50 -16 60 37 c33 21 59 41 58 45 -1 3 -130 102 -287 219 -157
117 -342 259 -412 316 l-127 103 -98 0 c-184 0 -302 50 -439 185 -73 72 -99
105 -128 167 -40 83 -66 185 -66 259 0 29 -6 51 -15 59 -13 11 -30 -1 -108
-76 -219 -210 -423 -455 -567 -686 -99 -157 -250 -466 -308 -628 -100 -278
-169 -586 -193 -862 -18 -209 -7 -567 25 -763 58 -361 202 -772 364 -1043 l62
-104 0 -272 0 -272 -35 -34 -35 -34 0 -103 c0 -75 -3 -103 -12 -104 -7 0 -43
0 -80 1 -56 1 -76 -3 -118 -26 -27 -15 -61 -45 -77 -67 l-28 -40 0 -186 c0
-213 7 -242 81 -347 118 -168 450 -342 1044 -549 618 -215 1264 -334 2099
-386 240 -15 954 -6 1190 15 219 20 620 76 860 122 597 114 1191 306 1657 535
242 119 234 112 234 208 l0 77 -101 120 c-56 65 -113 136 -126 157 l-26 37 62
64 c100 105 137 209 129 370 -5 104 -30 184 -82 262 l-35 52 -2 198 -2 199 45
70 c93 144 179 338 271 615 95 283 143 547 154 835 10 287 -19 568 -88 847
-126 514 -339 954 -649 1343 -98 123 -374 414 -432 456 -26 19 -27 19 -36 2z
m-5733 -1156 c12 -87 0 -132 -42 -157 -35 -21 -97 -27 -97 -9 0 6 20 34 45 61
41 46 75 121 75 166 0 34 10 1 19 -61z m6381 -47 c7 -14 34 -47 59 -75 38 -42
43 -50 28 -53 -35 -7 -84 8 -107 33 -26 27 -39 119 -25 172 7 28 7 28 19 -12
7 -22 18 -51 26 -65z m-414 -876 c-9 -24 11 -88 34 -109 25 -22 17 -35 -20
-35 -31 0 -50 22 -50 59 0 22 29 101 37 101 3 0 2 -7 -1 -16z m-5557 -140
c-14 -17 -41 -18 -56 -3 -9 9 -2 24 25 61 l37 49 3 -46 c2 -26 -2 -53 -9 -61z
m588 -533 c7 -19 19 -30 34 -33 29 -4 49 -50 33 -76 -16 -25 -37 -25 -78 -1
-32 18 -36 26 -36 60 0 36 17 79 30 79 3 0 11 -13 17 -29z m4383 -3 c11 -18
20 -43 20 -56 0 -33 -43 -72 -80 -72 -27 0 -30 3 -30 34 0 23 9 42 30 64 17
18 30 39 30 47 0 23 8 18 30 -17z m-5022 -1127 c63 -13 251 -14 307 -1 l40 9
-47 -43 c-27 -25 -72 -53 -108 -66 l-62 -23 28 -16 c19 -9 57 -15 106 -15 l78
-1 -44 -44 -43 -43 -55 16 c-70 20 -159 78 -225 147 -47 48 -103 117 -103 126
0 2 17 -5 38 -16 20 -10 61 -24 90 -30z m5700 -12 c-75 -108 -178 -184 -296
-220 -43 -12 -43 -12 -82 26 -22 22 -40 42 -40 45 0 3 25 3 55 2 54 -4 155 21
155 38 0 4 -15 11 -34 14 -31 6 -147 73 -159 93 -3 4 50 6 116 5 133 -4 220 8
276 37 55 28 56 26 9 -40z m-4994 -393 l69 -12 -43 -17 c-48 -18 -77 -10 -115
34 -20 22 -20 22 0 15 11 -5 51 -13 89 -20z m4276 -7 c-47 -40 -68 -44 -126
-20 l-49 20 55 1 c30 1 75 7 100 14 25 8 47 14 50 14 3 1 -11 -12 -30 -29z
m-5110 -243 l115 -63 3 -449 c1 -290 -1 -467 -8 -501 -15 -70 -60 -130 -117
-155 -104 -46 -268 -2 -378 103 -66 62 -100 117 -120 195 -15 57 -21 244 -8
244 3 0 51 -12 105 -26 l98 -27 0 -63 c0 -35 7 -82 16 -104 31 -77 116 -107
151 -53 17 25 18 64 18 495 -1 257 2 468 5 468 3 0 57 -29 120 -64z m5906
-166 c104 -51 141 -200 95 -383 -30 -117 -77 -180 -184 -247 -31 -19 -56 -37
-56 -40 -1 -6 46 -56 186 -202 57 -59 103 -110 103 -115 0 -5 -49 -33 -110
-63 l-110 -54 -42 40 c-24 21 -84 79 -135 128 -87 83 -94 87 -125 81 -73 -15
-67 2 -70 -198 l-3 -182 -45 -22 c-25 -12 -78 -31 -117 -42 l-73 -20 0 589 0
589 98 31 c53 16 165 52 247 80 176 58 266 66 341 30z m-4029 -34 c8 -8 -35
-8 -64 0 -13 4 -23 10 -23 14 0 8 77 -4 87 -14z m2193 4 c-8 -5 -33 -9 -55 -8
l-40 1 40 7 c65 12 73 12 55 0z m-3597 -32 c12 -7 65 -28 117 -48 l95 -36 -3
-380 -4 -379 32 -80 c48 -120 112 -175 204 -175 50 0 99 33 118 79 8 17 11
159 9 425 -1 321 1 397 11 393 7 -2 64 -17 126 -33 l112 -29 0 -405 c0 -443
-4 -484 -56 -561 -42 -62 -108 -100 -191 -109 -130 -13 -278 29 -398 115 -121
86 -188 200 -205 346 -14 119 -13 889 1 889 6 0 20 -5 32 -12z m4555 -265 l-3
-116 -217 -51 -218 -50 0 -128 c0 -128 0 -128 23 -123 98 25 278 61 282 57 8
-8 6 -210 -3 -215 -4 -3 -73 -20 -155 -38 l-147 -32 0 -119 c0 -109 2 -119 18
-114 9 3 53 13 97 21 44 9 128 30 188 46 59 16 114 29 122 29 12 0 15 -19 15
-104 0 -58 -4 -107 -9 -110 -10 -6 -340 -83 -519 -121 -68 -14 -129 -28 -137
-32 -13 -4 -15 69 -15 575 l0 580 78 17 c162 35 410 95 487 119 125 38 116 45
113 -91z m-2603 -13 c-3 -5 -15 -10 -26 -10 -10 0 -19 5 -19 10 0 6 12 10 26
10 14 0 23 -4 19 -10z m-675 -97 c4 -4 45 -93 90 -198 108 -249 171 -385 179
-385 3 1 62 118 131 261 69 144 127 262 130 263 3 2 51 -2 107 -7 l102 -10 3
-341 c2 -188 1 -438 -2 -556 l-5 -215 -45 2 c-25 1 -80 5 -122 8 l-78 7 0 266
c-1 242 -2 265 -16 247 -8 -11 -56 -102 -105 -202 -49 -101 -93 -183 -97 -183
-5 0 -63 110 -130 245 -68 135 -127 243 -132 240 -6 -4 -10 -114 -10 -281 0
-270 0 -274 -21 -274 -11 0 -67 7 -125 16 l-104 17 0 562 c0 309 2 564 5 567
7 7 236 -39 245 -49z m2465 -82 l0 -110 -90 -16 c-49 -8 -111 -20 -137 -26
l-48 -11 0 -443 c0 -294 -3 -446 -10 -450 -10 -6 -186 -34 -217 -35 -10 0 -13
96 -13 450 0 353 -3 450 -12 450 -7 0 -56 -7 -108 -15 -144 -22 -130 -33 -130
98 l0 113 114 12 c125 13 578 81 585 88 2 2 18 4 35 4 l31 0 0 -109z m-1042
-16 c56 -14 135 -50 169 -77 17 -12 14 -20 -32 -110 -28 -53 -54 -100 -59
-103 -5 -2 -31 10 -57 28 -61 42 -104 57 -161 57 -60 0 -99 -22 -112 -63 -22
-66 17 -112 147 -173 137 -64 156 -75 200 -117 71 -68 87 -107 87 -212 0 -80
-3 -97 -30 -149 -90 -178 -329 -237 -572 -139 -94 38 -94 39 -32 143 30 49 58
90 63 90 5 0 30 -13 55 -29 98 -63 192 -63 245 0 56 66 22 134 -92 185 -192
87 -260 137 -298 218 -30 64 -31 132 -4 219 23 74 85 152 154 192 89 52 221
68 329 40z"/>
<path d="M7713 2583 l-103 -34 0 -155 c0 -179 -11 -168 125 -128 112 32 148
54 180 108 21 35 25 56 25 118 0 138 -40 154 -227 91z"/>
<path d="M6060 5439 c0 -16 -100 -110 -111 -104 -5 4 -9 15 -9 25 0 22 -31 34
-61 25 -14 -5 -19 -13 -16 -26 3 -10 1 -22 -4 -25 -17 -10 -9 -33 14 -39 12
-4 32 -18 43 -32 l22 -25 41 18 c42 18 49 28 30 40 -6 3 12 23 44 45 66 47 76
67 47 91 -25 20 -40 23 -40 7z"/>
<path d="M5592 3143 c-30 -10 -42 -20 -38 -29 5 -14 -10 -19 -46 -16 -10 1
-30 -3 -44 -9 -46 -17 -12 -34 71 -35 71 -1 75 0 85 25 5 14 14 36 20 48 12
30 3 33 -48 16z"/>
<path d="M5115 2900 c-3 -5 -1 -18 5 -29 5 -11 10 -31 10 -45 0 -18 5 -26 18
-26 10 0 22 -4 28 -9 5 -5 33 -6 61 -2 84 12 86 28 6 40 -34 5 -48 11 -47 22
1 18 -72 63 -81 49z"/>
</g>
</svg>
